Coordinates
version=1
nRows=29
nColumns=22
inDegrees=yes

Units are S.I. units (second, meters, Newtons, ...)
If the header above contains a line with 'inDegrees', this indicates whether rotational values are in degrees (yes) or radians (no).

endheader
time	pelvis_tilt	pelvis_list	pelvis_rotation	pelvis_tx	pelvis_ty	pelvis_tz	hip_flexion_r	hip_adduction_r	hip_rotation_r	knee_angle_r	ankle_angle_r	subtalar_angle_r	hip_flexion_l	hip_adduction_l	hip_rotation_l	knee_angle_l	ankle_angle_l	subtalar_angle_l	lumbar_extension	lumbar_bending	lumbar_rotation
      4.54000000	      3.93227613	      2.54333998	    164.60084827	     -0.23165107	      0.84207657	     -0.48998918	    -11.74668528	     -1.75127820	     17.25514589	    -13.88099763	     25.38816729	      0.26503109	     36.71569666	    -17.58359585	     -9.64859021	    -15.89197921	      6.89489704	      0.33248330	     -4.38482804	      7.00156171	     19.62049798
      4.55000000	      4.09586339	      2.75339832	    164.30979785	     -0.24117171	      0.83975893	     -0.48837592	    -12.15125991	     -1.88420025	     17.55299269	    -14.05726173	     25.27949321	      0.54773087	     36.70234032	    -17.98479268	     -9.75537800	    -15.92666341	      7.10375330	     -0.13525298	     -4.15839095	      7.00428378	     19.89674592
      4.56000000	      4.27744009	      2.96092102	    164.02789427	     -0.25084413	      0.83741211	     -0.48667110	    -12.54104012	     -2.02520756	     17.84497552	    -14.23726426	     25.11818511	      0.85755883	     36.69335772	    -18.37620352	     -9.86202281	    -15.98927800	      7.24983633	     -0.52939406	     -3.92349792	      6.99855728	     20.16369815
      4.57000000	      4.47780300	      3.16703363	    163.75896072	     -0.26066058	      0.83504717	     -0.48486556	    -12.91794549	     -2.17188499	     18.13455464	    -14.41318826	     24.89745883	      1.17525192	     36.70370523	    -18.75897539	     -9.99178549	    -16.10392601	      7.26276793	     -0.78843446	     -3.68009415	      6.98729109	     20.41071065
      4.58000000	      4.70098568	      3.33999699	    163.51445547	     -0.27060838	      0.83267650	     -0.48292684	    -13.28092842	     -2.35327303	     18.46439371	    -14.56245698	     24.59702877	      1.42023709	     36.74808893	    -19.09119767	    -10.12515361	    -16.27857460	      7.04161610	     -0.87400820	     -3.41424904	      6.93752870	     20.61607576
      4.59000000	      4.94992382	      3.50660570	    163.32248477	     -0.28065327	      0.83029183	     -0.48079485	    -13.59801956	     -2.53590399	     18.70442723	    -14.74630814	     24.27093119	      2.00368870	     36.88798561	    -19.38970343	    -10.28586124	    -16.59661256	      6.50273099	     -0.79203660	     -3.13512310	      6.88434658	     20.76516473
      4.60000000	      5.20541316	      3.63692889	    163.16416752	     -0.29075444	      0.82798073	     -0.47852388	    -13.89285571	     -2.74686280	     18.99437726	    -14.93908121	     23.86411170	      2.43433025	     37.09765269	    -19.63401192	    -10.48643130	    -17.06088335	      5.56827700	     -0.42584101	     -2.86027695	      6.78319764	     20.86715554
      4.61000000	      5.47126127	      3.70889773	    163.08948840	     -0.30090054	      0.82574634	     -0.47601020	    -14.13923778	     -2.99784588	     19.21663781	    -15.17203188	     23.39628907	      2.94095018	     37.42317489	    -19.77068029	    -10.66294184	    -17.70169576	      4.18248164	      0.26628446	     -2.57580060	      6.61482871	     20.89376921
      4.62000000	      5.72002797	      3.72008907	    163.10076895	     -0.31104252	      0.82367070	     -0.47325421	    -14.34742789	     -3.28777869	     19.40153597	    -15.47450038	     22.85009044	      3.45489478	     37.84593966	    -19.78991923	    -10.79646961	    -18.53400907	      2.41361448	      1.18240549	     -2.31999002	      6.36849910	     20.83447548
      4.63000000	      5.93803496	      3.66424247	    163.21084870	     -0.32115559	      0.82181500	     -0.47024614	    -14.51660363	     -3.61582402	     19.53362272	    -15.87111709	     22.21738910	      3.99378637	     38.35586651	    -19.67212887	    -10.83815907	    -19.55838158	      0.41338657	      2.26636830	     -2.10895092	      6.03327567	     20.69712953
      4.64000000	      6.10388102	      3.54890924	    163.41311162	     -0.33120994	      0.82028522	     -0.46702808	    -14.66677409	     -3.97358146	     19.65160091	    -16.36303829	     21.44906865	      4.58770120	     38.90664387	    -19.42035173	    -10.76751374	    -20.74611081	     -1.60502884	      3.43498475	     -1.97314166	      5.60929867	     20.51506283
      4.65000000	      6.22639843	      3.33330364	    163.74983648	     -0.34121455	      0.81907753	     -0.46353161	    -14.76377646	     -4.38547021	     19.64408582	    -16.98888860	     20.58321703	      5.18853345	     39.50758330	    -18.96362855	    -10.55647647	    -22.07571098	     -3.42975870	      4.50852439	     -1.88550319	      5.06088835	     20.23757804
      4.66000000	      6.29422258	      3.04212626	    164.21078580	     -0.35114888	      0.81828596	     -0.45982020	    -14.83072709	     -4.82473332	     19.55357914	    -17.73620087	     19.56586607	      5.82142178	     40.11089543	    -18.32798984	    -10.24548911	    -23.50993828	     -4.86622191	      5.37727585	     -1.86943249	      4.41067871	     19.89703952
      4.67000000	      6.30977907	      2.69734889	    164.78639904	     -0.36099220	      0.81795376	     -0.45594851	    -14.87261497	     -5.26667793	     19.38989548	    -18.59566994	     18.39047638	      6.48594149	     40.68866951	    -17.54047502	     -9.86747828	    -25.01679744	     -5.80551258	      5.95638403	     -1.92873070	      3.68506195	     19.51048036
      4.68000000	      6.28682893	      2.33005273	    165.45301259	     -0.37070348	      0.81811195	     -0.45196601	    -14.87738110	     -5.67955790	     19.18490322	    -19.55982489	     17.03011175	      7.17029209	     41.21158992	    -16.64264335	     -9.44617445	    -26.53987165	     -6.23484745	      6.23318429	     -2.06065635	      2.92886069	     19.12000011
      4.69000000	      6.23717031	      1.97602586	    166.17696882	     -0.38025061	      0.81876777	     -0.44794723	    -14.83720925	     -6.03130651	     18.98007313	    -20.61497749	     15.47632834	      7.85562854	     41.64860425	    -15.69280493	     -9.01016077	    -28.01980686	     -6.22724140	      6.25622004	     -2.25836208	      2.18863806	     18.75041982
      4.70000000	      6.17395988	      1.67063595	    166.92067871	     -0.38959744	      0.81989995	     -0.44394739	    -14.72837818	     -6.29271821	     18.80282013	    -21.76647933	     13.73428966	      8.49097979	     41.96996217	    -14.74948667	     -8.57572124	    -29.38694797	     -5.88651089	      6.10625450	     -2.51365853	      1.51407345	     18.44168208
      4.71000000	      6.10192044	      1.44981265	    167.66018744	     -0.39871494	      0.82147052	     -0.43999109	    -14.53844083	     -6.43600910	     18.65106351	    -23.01602736	     11.83025411	      8.95894295	     42.15425774	    -13.86402093	     -8.15092603	    -30.58566323	     -5.34880135	      5.90574379	     -2.82355196	      0.95451082	     18.20571776
      4.72000000	      6.05564504	      1.31688108	    168.30127387	     -0.40759035	      0.82338689	     -0.43624625	    -14.20288779	     -6.46994796	     18.64778361	    -24.37800009	      9.80419399	      9.51062685	     42.19692802	    -13.12416255	     -7.84516876	    -31.57286981	     -4.65365864	      5.58249234	     -3.13253453	      0.51654443	     18.11354784
      4.73000000	      6.01656116	      1.30666895	    168.87859833	     -0.41621734	      0.82559823	     -0.43262621	    -13.74902439	     -6.36216885	     18.68815596	    -25.84731800	      7.70361997	      9.83182070	     42.09112171	    -12.52514826	     -7.57105947	    -32.32919636	     -3.92804211	      5.33150145	     -3.46487184	      0.24438305	     18.11362012
      4.74000000	      6.01910445	      1.39207076	    169.31408372	     -0.42458766	      0.82798003	     -0.42926162	    -13.10600715	     -6.14692837	     18.84579621	    -27.45505515	      5.59572497	     10.13116399	     41.86702037	    -12.11584382	     -7.43972875	    -32.86728460	     -3.16998140	      5.04481622	     -3.76142455	      0.10854892	     18.24924067
      4.75000000	      6.05133488	      1.55926346	    169.61728190	     -0.43270304	      0.83048683	     -0.42614590	    -12.28731651	     -5.84039892	     19.05629129	    -29.19685600	      3.49956384	     10.36012605	     41.52476266	    -11.86830968	     -7.40681413	    -33.19054601	     -2.42739632	      4.79588046	     -4.02812508	      0.08715635	     18.48870729
      4.76000000	      6.13376642	      1.79135516	    169.78514366	     -0.44054938	      0.83303110	     -0.42331537	    -11.26441628	     -5.45298188	     19.28603587	    -31.08286245	      1.42054561	     10.58842926	     41.11500066	    -11.77628247	     -7.47048661	    -33.34099103	     -1.71155553	      4.55367978	     -4.23585702	      0.15891725	     18.79112833
      4.77000000	      6.26329100	      2.05336791	    169.81509313	     -0.44809358	      0.83558519	     -0.42079506	    -10.03523382	     -5.02149378	     19.49921656	    -33.10777966	     -0.64929208	     10.84238319	     40.65255459	    -11.80694242	     -7.62411992	    -33.34046144	     -1.04860111	      4.34808002	     -4.38589305	      0.27739651	     19.14786309
      4.78000000	      6.45094702	      2.31532339	    169.73087437	     -0.45531181	      0.83808927	     -0.41858997	     -8.58956402	     -4.57238056	     19.63323061	    -35.26512410	     -2.71104200	     11.18142033	     40.18265528	    -11.92205666	     -7.85075365	    -33.22785261	     -0.44948890	      4.17111792	     -4.46209410	      0.40552441	     19.51115844
      4.79000000	      6.70922669	      2.55903970	    169.57638532	     -0.46218954	      0.84049493	     -0.41664521	     -6.92950038	     -4.12653589	     19.61847157	    -37.52575928	     -4.75070603	     11.71431400	     39.74550693	    -12.07504545	     -8.10348713	    -33.02253010	      0.08526186	      4.00630967	     -4.45075625	      0.52550957	     19.82069444
      4.80000000	      6.98748980	      2.74106376	    169.34572452	     -0.46870166	      0.84286603	     -0.41499210	     -5.11206507	     -3.74110661	     19.47950024	    -39.86395617	     -6.71149503	     12.36800799	     39.29656849	    -12.22929634	     -8.42164607	    -32.74094008	      0.51327606	      3.90060339	     -4.40651734	      0.57056555	     20.10654120
      4.81000000	      7.29595646	      2.85175877	    169.09215862	     -0.47487649	      0.84513101	     -0.41353032	     -3.14898190	     -3.43647088	     19.16118917	    -42.24479187	     -8.48350669	     13.13096184	     38.87260677	    -12.34265532	     -8.77007291	    -32.40537650	      0.89242391	      3.83271249	     -4.31302278	      0.53812001	     20.31201122
      4.82000000	      7.60750668	      2.90203748	    168.85036400	     -0.48074074	      0.84733617	     -0.41217914	     -1.11098738	     -3.20941182	     18.69935589	    -44.59777638	     -9.97443482	     14.04721289	     38.44997954	    -12.39201425	     -9.10693889	    -32.00663479	      1.18539561	      3.78210286	     -4.20277996	      0.44038901	     20.42196713
